<svg width="438" height="384" viewBox="0 0 438 384" fill="none" xmlns="http://www.w3.org/2000/svg">
<path id="Vector 1" d="M0 16H75L95.7484 84.2392M95.7484 84.2392H421.699L377 262.5H130.5L95.7484 84.2392Z" stroke="black" stroke-width="32" stroke-linejoin="round"/>
<path id="Ellipse 7" d="M211 336.5C211 362.734 189.734 384 163.5 384C137.266 384 116 362.734 116 336.5C116 310.266 137.266 289 163.5 289C189.734 289 211 310.266 211 336.5ZM140.077 336.5C140.077 349.436 150.564 359.923 163.5 359.923C176.436 359.923 186.923 349.436 186.923 336.5C186.923 323.564 176.436 313.077 163.5 313.077C150.564 313.077 140.077 323.564 140.077 336.5Z" fill="black"/>
<path id="Ellipse 8" d="M388 336.5C388 362.734 366.734 384 340.5 384C314.266 384 293 362.734 293 336.5C293 310.266 314.266 289 340.5 289C366.734 289 388 310.266 388 336.5ZM317.077 336.5C317.077 349.436 327.564 359.923 340.5 359.923C353.436 359.923 363.923 349.436 363.923 336.5C363.923 323.564 353.436 313.077 340.5 313.077C327.564 313.077 317.077 323.564 317.077 336.5Z" fill="black"/>
</svg>
